<?xml version="1.0" encoding="utf-8"?>
<!-- Generator: Adobe Illustrator 16.0.0, SVG Export Plug-In . SVG Version: 6.00 Build 0)  -->
<!DOCTYPE svg PUBLIC "-//W3C//DTD SVG 1.1//EN" "http://www.w3.org/Graphics/SVG/1.1/DTD/svg11.dtd">
<svg version="1.1" id="Layer_1" xmlns="http://www.w3.org/2000/svg" xmlns:xlink="http://www.w3.org/1999/xlink" x="0px" y="0px"
	 width="143.766px" height="143.766px" viewBox="0 0 143.766 143.766" enable-background="new 0 0 143.766 143.766"
	 xml:space="preserve">
<g>
	<path fill="#EA2D5A" d="M32.463,71.5H0C0,32.5,32.5,0,71.5,0v32.463C50.5,32.463,32.463,50.5,32.463,71.5z"/>
</g>
<g>
	<path fill="#D81D52" d="M71.883,143.766C32.246,143.766,0,111.521,0,71.883c0-8.964,7.268-16.231,16.231-16.231
		c8.964,0,16.232,7.268,16.232,16.231c0,21.736,17.684,39.42,39.419,39.42c8.964,0,16.232,7.268,16.232,16.231
		C88.115,136.499,80.847,143.766,71.883,143.766z"/>
</g>
<g>
	<path fill="#BF164E" d="M71.883,143.766c-8.964,0-16.231-7.267-16.231-16.231c0-8.964,7.268-16.231,16.231-16.231
		c21.736,0,39.42-17.684,39.42-39.42c0-8.964,7.268-16.231,16.231-16.231c8.964,0,16.232,7.268,16.232,16.231
		C143.766,111.521,111.52,143.766,71.883,143.766z"/>
</g>
<g>
	<path fill="#B7135D" d="M127.534,88.115c-8.964,0-16.231-7.268-16.231-16.232c0-21.735-17.684-39.42-39.42-39.42
		c-8.964,0-16.231-7.267-16.231-16.231C55.651,7.268,62.919,0,71.883,0c39.637,0,71.883,32.246,71.883,71.883
		C143.766,80.848,136.499,88.115,127.534,88.115z"/>
</g>
</svg>
